<?xml version="1.0" encoding="UTF-8" standalone="no"?>
<!DOCTYPE svg PUBLIC "-//W3C//DTD SVG 1.1//EN"
 "http://www.w3.org/Graphics/SVG/1.1/DTD/svg11.dtd">
<!-- Generated by graphviz version 2.40.1 (20161225.0304)
 -->
<!-- Title: dependencies Pages: 1 -->
<svg width="1036pt" height="349pt"
 viewBox="0.00 0.00 1036.00 349.00" xmlns="http://www.w3.org/2000/svg" xmlns:xlink="http://www.w3.org/1999/xlink">
<g id="graph0" class="graph" transform="scale(1 1) rotate(0) translate(4 345)">
<title>dependencies</title>
<polygon fill="#ffffff" stroke="transparent" points="-4,4 -4,-345 1032,-345 1032,4 -4,4"/>
<text text-anchor="start" x="493.0091" y="-42.4" font-family="sans-serif" font-weight="bold" font-size="14.00" fill="#000000">Legend</text>
<polygon fill="#ffffb3" stroke="transparent" points="280,-10 280,-30 300,-30 300,-10 280,-10"/>
<text text-anchor="start" x="303.629" y="-15.4" font-family="sans-serif" font-size="14.00" fill="#000000"> &#160;Declarations</text>
<polygon fill="#8dd3c7" stroke="transparent" points="393,-10 393,-30 413,-30 413,-10 393,-10"/>
<text text-anchor="start" x="416.7251" y="-15.4" font-family="sans-serif" font-size="14.00" fill="#000000"> &#160;Module</text>
<polygon fill="#80b1d3" stroke="transparent" points="479,-10 479,-30 499,-30 499,-10 479,-10"/>
<text text-anchor="start" x="502.7812" y="-15.4" font-family="sans-serif" font-size="14.00" fill="#000000"> &#160;Bootstrap</text>
<polygon fill="#fdb462" stroke="transparent" points="576,-10 576,-30 596,-30 596,-10 576,-10"/>
<text text-anchor="start" x="599.6732" y="-15.4" font-family="sans-serif" font-size="14.00" fill="#000000"> &#160;Providers</text>
<polygon fill="#fb8072" stroke="transparent" points="672,-10 672,-30 692,-30 692,-10 672,-10"/>
<text text-anchor="start" x="695.7258" y="-15.4" font-family="sans-serif" font-size="14.00" fill="#000000"> &#160;Exports</text>
<g id="clust1" class="cluster">
<title>cluster_AppModule</title>
<polygon fill="none" stroke="#000000" stroke-dasharray="1,5" points="8,-70 8,-333 1020,-333 1020,-70 8,-70"/>
</g>
<g id="clust2" class="cluster">
<title>cluster_AppModule_declarations</title>
<polygon fill="none" stroke="#000000" points="16,-143 16,-195 1012,-195 1012,-143 16,-143"/>
</g>
<g id="clust4" class="cluster">
<title>cluster_AppModule_AppComponent_providers</title>
<polygon fill="none" stroke="#000000" points="559,-78 559,-130 927,-130 927,-78 559,-78"/>
</g>
<g id="clust12" class="cluster">
<title>cluster_AppModule_bootstrap</title>
<polygon fill="none" stroke="#000000" points="423,-273 423,-325 547,-325 547,-273 423,-273"/>
</g>
<!-- AdvertisementsComponent -->
<g id="node1" class="node">
<title>AdvertisementsComponent</title>
<polygon fill="#ffffb3" stroke="#000000" points="1003.6951,-187 834.3049,-187 834.3049,-151 1003.6951,-151 1003.6951,-187"/>
<text text-anchor="middle" x="919" y="-164.8" font-family="Times,serif" font-size="14.00" fill="#000000">AdvertisementsComponent</text>
</g>
<!-- AppModule -->
<g id="node8" class="node">
<title>AppModule</title>
<polygon fill="#8dd3c7" stroke="#000000" points="526.6571,-252 523.6571,-256 502.6571,-256 499.6571,-252 443.3429,-252 443.3429,-216 526.6571,-216 526.6571,-252"/>
<text text-anchor="middle" x="485" y="-229.8" font-family="Times,serif" font-size="14.00" fill="#000000">AppModule</text>
</g>
<!-- AdvertisementsComponent&#45;&gt;AppModule -->
<g id="edge1" class="edge">
<title>AdvertisementsComponent&#45;&gt;AppModule</title>
<path fill="none" stroke="#000000" d="M919,-187.2921C919,-209.2057 919,-243 919,-243 919,-243 537.0081,-243 537.0081,-243"/>
<polygon fill="#000000" stroke="#000000" points="537.0081,-239.5001 527.0081,-243 537.0081,-246.5001 537.0081,-239.5001"/>
</g>
<!-- AppComponent -->
<g id="node2" class="node">
<title>AppComponent</title>
<polygon fill="#ffffb3" stroke="#000000" points="816.9399,-187 711.0601,-187 711.0601,-151 816.9399,-151 816.9399,-187"/>
<text text-anchor="middle" x="764" y="-164.8" font-family="Times,serif" font-size="14.00" fill="#000000">AppComponent</text>
</g>
<!-- AppComponent&#45;&gt;AppModule -->
<g id="edge2" class="edge">
<title>AppComponent&#45;&gt;AppModule</title>
<path fill="none" stroke="#000000" d="M764,-187.1061C764,-206.3391 764,-234 764,-234 764,-234 536.7691,-234 536.7691,-234"/>
<polygon fill="#000000" stroke="#000000" points="536.7692,-230.5001 526.7691,-234 536.7691,-237.5001 536.7692,-230.5001"/>
</g>
<!-- ProductComponent -->
<g id="node3" class="node">
<title>ProductComponent</title>
<polygon fill="#ffffb3" stroke="#000000" points="693.3809,-187 568.6191,-187 568.6191,-151 693.3809,-151 693.3809,-187"/>
<text text-anchor="middle" x="631" y="-164.8" font-family="Times,serif" font-size="14.00" fill="#000000">ProductComponent</text>
</g>
<!-- ProductComponent&#45;&gt;AppModule -->
<g id="edge5" class="edge">
<title>ProductComponent&#45;&gt;AppModule</title>
<path fill="none" stroke="#000000" d="M631,-187.027C631,-203.3976 631,-225 631,-225 631,-225 536.8377,-225 536.8377,-225"/>
<polygon fill="#000000" stroke="#000000" points="536.8378,-221.5001 526.8377,-225 536.8377,-228.5001 536.8378,-221.5001"/>
</g>
<!-- ProductsComponent -->
<g id="node4" class="node">
<title>ProductsComponent</title>
<polygon fill="#ffffb3" stroke="#000000" points="550.3258,-187 419.6742,-187 419.6742,-151 550.3258,-151 550.3258,-187"/>
<text text-anchor="middle" x="485" y="-164.8" font-family="Times,serif" font-size="14.00" fill="#000000">ProductsComponent</text>
</g>
<!-- ProductsComponent&#45;&gt;AppModule -->
<g id="edge6" class="edge">
<title>ProductsComponent&#45;&gt;AppModule</title>
<path fill="none" stroke="#000000" d="M485,-187.1061C485,-187.1061 485,-205.991 485,-205.991"/>
<polygon fill="#000000" stroke="#000000" points="481.5001,-205.9909 485,-215.991 488.5001,-205.991 481.5001,-205.9909"/>
</g>
<!-- RatingComponent -->
<g id="node5" class="node">
<title>RatingComponent</title>
<polygon fill="#ffffb3" stroke="#000000" points="402.1653,-187 283.8347,-187 283.8347,-151 402.1653,-151 402.1653,-187"/>
<text text-anchor="middle" x="343" y="-164.8" font-family="Times,serif" font-size="14.00" fill="#000000">RatingComponent</text>
</g>
<!-- RatingComponent&#45;&gt;AppModule -->
<g id="edge7" class="edge">
<title>RatingComponent&#45;&gt;AppModule</title>
<path fill="none" stroke="#000000" d="M343,-187.027C343,-203.3976 343,-225 343,-225 343,-225 433.1633,-225 433.1633,-225"/>
<polygon fill="#000000" stroke="#000000" points="433.1634,-228.5001 443.1633,-225 433.1633,-221.5001 433.1634,-228.5001"/>
</g>
<!-- StarComponent -->
<g id="node6" class="node">
<title>StarComponent</title>
<polygon fill="#ffffb3" stroke="#000000" points="265.8809,-187 162.1191,-187 162.1191,-151 265.8809,-151 265.8809,-187"/>
<text text-anchor="middle" x="214" y="-164.8" font-family="Times,serif" font-size="14.00" fill="#000000">StarComponent</text>
</g>
<!-- StarComponent&#45;&gt;AppModule -->
<g id="edge8" class="edge">
<title>StarComponent&#45;&gt;AppModule</title>
<path fill="none" stroke="#000000" d="M214,-187.1061C214,-206.3391 214,-234 214,-234 214,-234 433.2502,-234 433.2502,-234"/>
<polygon fill="#000000" stroke="#000000" points="433.2502,-237.5001 443.2502,-234 433.2501,-230.5001 433.2502,-237.5001"/>
</g>
<!-- StarfillComponent -->
<g id="node7" class="node">
<title>StarfillComponent</title>
<polygon fill="#ffffb3" stroke="#000000" points="144.2134,-187 23.7866,-187 23.7866,-151 144.2134,-151 144.2134,-187"/>
<text text-anchor="middle" x="84" y="-164.8" font-family="Times,serif" font-size="14.00" fill="#000000">StarfillComponent</text>
</g>
<!-- StarfillComponent&#45;&gt;AppModule -->
<g id="edge9" class="edge">
<title>StarfillComponent&#45;&gt;AppModule</title>
<path fill="none" stroke="#000000" d="M84,-187.2921C84,-209.2057 84,-243 84,-243 84,-243 433.2208,-243 433.2208,-243"/>
<polygon fill="#000000" stroke="#000000" points="433.2208,-246.5001 443.2208,-243 433.2207,-239.5001 433.2208,-246.5001"/>
</g>
<!-- AppComponent  -->
<g id="node11" class="node">
<title>AppComponent </title>
<polygon fill="#80b1d3" stroke="#000000" points="539.439,-317 430.561,-317 430.561,-281 539.439,-281 539.439,-317"/>
<text text-anchor="middle" x="485" y="-294.8" font-family="Times,serif" font-size="14.00" fill="#000000">AppComponent </text>
</g>
<!-- AppModule&#45;&gt;AppComponent  -->
<g id="edge10" class="edge">
<title>AppModule&#45;&gt;AppComponent </title>
<path fill="none" stroke="#000000" stroke-dasharray="1,5" d="M485,-252.1061C485,-252.1061 485,-270.991 485,-270.991"/>
<polygon fill="#000000" stroke="#000000" points="481.5001,-270.9909 485,-280.991 488.5001,-270.991 481.5001,-270.9909"/>
</g>
<!-- ProductService -->
<g id="node9" class="node">
<title>ProductService</title>
<ellipse fill="#fdb462" stroke="#000000" cx="849" cy="-104" rx="70.0616" ry="18"/>
<text text-anchor="middle" x="849" y="-99.8" font-family="Times,serif" font-size="14.00" fill="#000000">ProductService</text>
</g>
<!-- ProductService&#45;&gt;AppComponent -->
<g id="edge3" class="edge">
<title>ProductService&#45;&gt;AppComponent</title>
<path fill="none" stroke="#000000" d="M797.8444,-116.5327C797.8444,-116.5327 797.8444,-140.8507 797.8444,-140.8507"/>
<polygon fill="#000000" stroke="#000000" points="794.3445,-140.8506 797.8444,-150.8507 801.3445,-140.8507 794.3445,-140.8506"/>
</g>
<!-- AdvertisementService -->
<g id="node10" class="node">
<title>AdvertisementService</title>
<ellipse fill="#fdb462" stroke="#000000" cx="664" cy="-104" rx="96.6849" ry="18"/>
<text text-anchor="middle" x="664" y="-99.8" font-family="Times,serif" font-size="14.00" fill="#000000">AdvertisementService</text>
</g>
<!-- AdvertisementService&#45;&gt;AppComponent -->
<g id="edge4" class="edge">
<title>AdvertisementService&#45;&gt;AppComponent</title>
<path fill="none" stroke="#000000" d="M736.0614,-116.226C736.0614,-116.226 736.0614,-140.683 736.0614,-140.683"/>
<polygon fill="#000000" stroke="#000000" points="732.5615,-140.683 736.0614,-150.683 739.5615,-140.683 732.5615,-140.683"/>
</g>
</g>
</svg>
